# xmcd
#
# Track frame offsets: 
#        150
#        17178
#        31188
#        48295
#        60167
#        74496
#        96873
#        119856
#        132348
#        143300
#        156943
#        175019
#        198688
#        212900
#        239793
#        251285
#
# Disc length: 3511 seconds
#
# Revision: 5
# Processed by: cddbd v1.5.1PL0 Copyright (c) Steve Scherf et al.
# Submitted via: ExactAudioCopy v0.95a5
#
DISCID=e70db510
DTITLE=Various Artist - Essential Chicago Blues (Disk 1 of 2)
DYEAR=1997
DGENRE=Blues
TTITLE0=Otis Spann - It Must Have Been the Devil
TTITLE1=Bo Diddley - Before You Accuse Me
TTITLE2=Billy Boy Arnold - Don't Stay Out All Night
TTITLE3=Otis Rush - All Your Love (I Miss Loving)
TTITLE4=Little Walter - Sad Hours
TTITLE5=Son Seals - On My Knees
TTITLE6=Hound Dog Taylor - See Me In the Evening
TTITLE7=Muddy Waters - Hoochie Coochie Man
TTITLE8=J. B. Lenoir - Mama, Talk To Your Daughter
TTITLE9=Buddy Guy - Sit and Cry (and Sing the Blues)
TTITLE10=Carey Bell - Borrow Your Love
TTITLE11=Koko Taylor - I Cried Like a Baby
TTITLE12=Willie Mabon - I Don't Know
TTITLE13=John Primer - Double Trouble
TTITLE14=Sonny Boy Williamson - Born Blind
TTITLE15=Eddie Boyd - Five Long Years
EXTD=LABEL =Platinum Entertainment, Inc.\nID =5141612802\nUPC =7514
EXTD=16-1280-23\nCOPYRIGHT =1997
EXTT0=
EXTT1=
EXTT2=
EXTT3=
EXTT4=
EXTT5=
EXTT6=
EXTT7=
EXTT8=
EXTT9=
EXTT10=
EXTT11=
EXTT12=
EXTT13=
EXTT14=
EXTT15=
PLAYORDER=
